<svg xmlns="http://www.w3.org/2000/svg" viewBox="0 0 1200 630" role="img" aria-label="MxMap.it — Sovranità digitale della posta elettronica della PA italiana">
  <style>.w{font-family:'Titillium Web','Segoe UI',Tahoma,sans-serif}</style>
  <rect width="1200" height="630" fill="#ffffff"/>
  <rect x="0" y="0" width="1200" height="8" fill="#0066CC"/>
  <g transform="translate(96,150) scale(3.4)">
    <circle cx="34" cy="40" r="5" fill="#0066CC"/>
    <path d="M21 40 A13 13 0 0 0 47 40" fill="none" stroke="#0066CC" stroke-width="3.4" stroke-linecap="round"/>
    <path d="M13 40 A21 21 0 0 0 55 40" fill="none" stroke="#0066CC" stroke-width="3.4" stroke-linecap="round" opacity="0.6"/>
    <path d="M5 40 A29 29 0 0 0 63 40" fill="none" stroke="#0066CC" stroke-width="3.4" stroke-linecap="round" opacity="0.3"/>
    <rect x="20" y="52" width="9" height="3" fill="#008758"/>
    <rect x="29.5" y="52" width="9" height="3" fill="#9AA6B2"/>
    <rect x="39" y="52" width="9" height="3" fill="#CE2B37"/>
  </g>
  <text class="w" x="360" y="250" font-size="104" font-weight="700" fill="#17324D">MxMap<tspan fill="#0066CC">.it</tspan></text>
  <text class="w" x="364" y="318" font-size="38" font-weight="600" fill="#5A6772">Sovranità digitale della posta elettronica della PA</text>
  <text class="w" x="364" y="372" font-size="30" font-weight="400" fill="#5A6772">~22.987 enti pubblici · classificazione DNS · dati aperti</text>
  <rect x="96" y="540" width="60" height="6" fill="#008758"/>
  <rect x="160" y="540" width="60" height="6" fill="#9AA6B2"/>
  <rect x="224" y="540" width="60" height="6" fill="#CE2B37"/>
  <text class="w" x="96" y="588" font-size="26" font-weight="600" letter-spacing="1.5" fill="#17324D">mxmap.it</text>
</svg>
